PathFileType	4	(X/Y/Z)	Patient4_TMGait_0pt7_01_left_23.trc.trc
DataRate	CameraRate	NumFrames	NumMarkers	Units	OrigDataRate	OrigDataStartFrame	OrigNumFrames
86.419753086420	86.419753086420	5	33	mm	86.419753086420	106	       141
Frame#	Time	Sacral			L.Shoulder			Chest			R.Shoulder			Neck			R.ASIS			L.ASIS			R.Thigh.Superior			R.Thigh.Lateral			R.Thigh.Inferior			R.Patella			L.Thigh.Superior			L.Thigh.Lateral			L.Thigh.Inferior			L.Patella			L.Shank.Superior			L.Shank.Lateral			L.Shank.Inferior			R.Shank.Superior			R.Shank.Lateral			R.Shank.Inferior			R.Heel			R.Midfoot.Superior			R.Midfoot.Lateral			R.Toe			L.Heel			L.Midfoot.Lateral			L.Midfoot.Superior			L.Toe			L.Elbow			L.Wrist			R.Elbow			R.Wrist			
		X1	Y1	Z1	X2	Y2	Z2	X3	Y3	Z3	X4	Y4	Z4	X5	Y5	Z5	X6	Y6	Z6	X7	Y7	Z7	X8	Y8	Z8	X9	Y9	Z9	X10	Y10	Z10	X11	Y11	Z11	X12	Y12	Z12	X13	Y13	Z13	X14	Y14	Z14	X15	Y15	Z15	X16	Y16	Z16	X17	Y17	Z17	X18	Y18	Z18	X19	Y19	Z19	X20	Y20	Z20	X21	Y21	Z21	X22	Y22	Z22	X23	Y23	Z23	X24	Y24	Z24	X25	Y25	Z25	X26	Y26	Z26	X27	Y27	Z27	X28	Y28	Z28	X29	Y29	Z29	X30	Y30	Z30	X31	Y31	Z31	X32	Y32	Z32	X33	Y33	Z33	

106	27.675000000000	832.834420895620	1018.659600632171	521.403843209261	1034.031961620664	1426.057664703569	318.145633092210	1148.892366883425	1343.503023906899	466.264817697773	1100.834236350807	1430.802380319042	647.123370630640	1065.743424310318	1487.536057120733	469.997790900710	1064.111187501587	939.852628911798	619.569706880812	1027.845774486990	959.984973495562	347.217235475105	1090.526971279125	737.155792177035	588.770059297669	1007.598663530067	633.860573484369	652.936874507333	1074.722062992163	578.111031944488	566.882667264966	1069.578126787022	490.614904953666	571.647457309562	1117.801586407441	796.225499573435	380.592714526511	1086.294581887627	667.652600381476	299.683909055629	1192.533405334667	612.869916758951	362.532947574526	1218.263595818657	531.630314584980	353.540839388536	1174.216763629658	455.610555062899	342.863121824570	1059.092691975954	366.184432158189	290.833124584940	1096.372633917597	239.396097492073	342.571238274663	1040.853786010165	403.777054540123	580.467298360460	970.829705303439	301.787224269166	646.070766897875	1004.692985552781	206.161271393689	579.390450242037	864.163677341703	43.276890280182	558.071323306659	1037.147696626011	96.665824801466	583.399186650731	951.348383648077	37.176579096581	627.473729856263	1158.936116260098	42.748097833818	605.188429439024	946.375317310630	105.104223036358	376.877840493169	1016.098121131490	89.082332649867	295.161096793358	1110.148708974333	135.266547580598	318.488566283856	1224.138037381303	62.758655903813	285.864991615751	915.478746308694	1087.459829227375	229.633982890496	953.217512170688	828.122728202044	219.745788689834	1148.368480857398	1099.657793926221	795.045395060147	1356.500463460490	958.997225685035	728.378711358551	
107	27.686571428571	832.576922234089	1018.507893137020	521.987937005614	1033.367406140485	1425.683805286966	317.970461980247	1148.734025638229	1343.000199645878	465.574846404210	1101.598565149846	1430.369365494167	646.664561266878	1065.726647023994	1487.146695836764	469.767361567374	1064.229201480013	939.298174221857	619.067987614937	1026.949461032524	959.909499855393	346.765200762988	1089.094400106887	736.146126414221	587.785250171214	1005.729397906300	633.280500996475	652.544613245397	1072.086546135937	577.040378228987	566.335280768696	1065.950482384471	489.387199730828	571.072743597119	1116.622448864567	796.304940382188	380.082760085411	1085.300281314483	667.648164539610	299.029974825714	1191.268324663419	613.168112295215	362.312710204020	1218.372589234441	534.061296583021	353.291128884474	1178.389544983163	457.752455527964	342.236031956165	1069.994535775113	361.280303899968	288.998846804757	1115.101608256842	236.881298868175	341.041585715984	1036.400553715715	402.763955704344	579.954855363477	965.502984016140	301.428931739536	645.715361704745	998.053599361273	205.487254031101	578.980754646421	856.029389575303	43.289054033383	558.062315287809	1028.996929829251	96.514524298328	583.221912455032	943.208694871505	37.177828729673	627.478636575197	1150.794203703521	42.577981510986	605.269342487876	974.146882362882	93.078300163034	374.173355214966	1045.443981159363	81.545785704603	293.067462941557	1136.105760188975	133.540986669767	317.087972207534	1254.682500361065	68.342739317457	285.623754723736	911.655234660427	1088.018047843476	230.416921771766	937.092366798434	827.560474383870	219.466892072017	1156.329614796676	1100.564778762128	793.329190121196	1370.116208842555	973.862257809069	719.045798205705	
108	27.698142857143	832.438639841843	1018.275809507223	522.433956944239	1032.803586856312	1425.325388540808	317.707434720313	1148.620557666658	1342.494636877625	464.825950556436	1102.309070006516	1429.907628909515	646.116970497973	1065.732040068337	1486.737053316143	469.450894388282	1064.447299959740	938.698596353985	618.430401774393	1026.174561760020	959.732314951209	346.181536867176	1087.768683013598	735.083243248082	586.777827127479	1003.856991648347	632.647853378321	652.055173492973	1069.441784814278	575.895672669012	565.732648825844	1062.291266251253	488.132148762543	570.426087970729	1115.211955527778	795.829402561110	379.332127601279	1083.740635211062	667.217110506744	298.123135386758	1189.330962161737	612.795696264478	361.897620373890	1217.649588456219	535.968714970912	352.961782791535	1181.761293916345	459.666845472494	341.614095803893	1080.629353922330	356.586504853796	287.060289069947	1133.200948339509	235.149879658834	339.698789809243	1031.905897696935	401.725046309975	579.382013440581	960.157499421733	301.070627052760	645.333036974367	991.388380312535	204.817320718486	578.557244677121	847.892647064568	43.310288899983	558.060020820244	1020.856083522331	96.384619581052	583.073066286673	935.067391686353	37.173361409460	627.477539230086	1142.650136176135	42.411557974596	605.347282200840	1001.699028275465	82.584528130305	371.507235302138	1074.574250117249	75.381615463585	291.271472289819	1161.449871759631	132.942715436998	316.104811081354	1284.183291766831	75.150138393743	286.352477295311	907.816315396266	1088.766617214212	230.925998819491	921.984480264512	827.861567901997	219.140572674301	1163.910976617213	1101.438439510047	791.209248404942	1382.366466502489	989.322949311884	709.440198038652	
109	27.709714285714	832.446880554169	1017.971141593145	522.735413215866	1032.331967703523	1424.996432703376	317.354315486289	1148.557866730951	1342.006717333879	464.011274535261	1102.980861140503	1429.437956127138	645.476744274374	1065.764153332556	1486.324915008640	469.043954778783	1064.779681194170	938.072479690311	617.652196297344	1025.540652716406	959.479563786303	345.458966614699	1086.507102449342	733.975066346866	585.747924122172	1001.929668705031	631.987250896436	651.477695756992	1066.712796468039	574.689102691076	565.078411156134	1058.529643463290	486.875513264612	569.721470856641	1113.621245106278	794.850972338671	378.363723015712	1081.722361404770	666.419863854878	296.956895337774	1186.847781351273	611.824653538266	361.274485329839	1216.201298308720	537.374696745713	352.548489611809	1184.375122100616	461.359282139686	340.975799675464	1090.848274082168	352.200395082432	285.100051385195	1150.447012536234	234.219215370195	338.554052719284	1027.309853400546	400.686177077034	578.760160833284	954.746925643946	300.730181656288	644.929900958348	984.676553120249	204.173952215771	578.129571584943	839.756378597574	43.347384826610	558.063972096277	1012.728036546708	96.275830504083	582.952883925871	926.924956512597	37.165578160898	627.468672626509	1134.507710315579	42.248273654919	605.421934330231	1028.621235119686	73.750971757171	369.013946904168	1103.044459843284	70.619313124666	289.850777295409	1185.844191816483	133.431650197982	315.519668461983	1312.262715020647	82.996909412423	287.940737665369	903.965056047501	1089.716183636713	231.173273066207	908.006376207776	828.872322892124	218.766799164363	1171.113196249903	1102.261334329796	788.667802408015	1393.199889572172	1005.232717767723	699.640536592088	
110	27.721285714286	832.624441382651	1017.600569593212	522.882637568744	1031.940157794533	1424.706263447598	316.908242847647	1148.548899540085	1341.554151616411	463.123155229705	1103.625872895051	1428.976981668166	644.740335232030	1065.822904595317	1485.924505163884	468.544522332502	1065.238619394003	937.435036578449	616.731075796369	1025.067601429292	959.173890034457	344.590628942127	1085.265793040538	732.830702774037	584.687594937312	999.902607669580	631.325022510316	650.821618426813	1063.833089063926	573.436827612109	564.374915182691	1054.604652717718	485.642460116254	568.974746042907	1111.917491789463	793.439975721519	377.206217661677	1079.364813260765	665.318512078844	295.550023112330	1183.964480668518	610.340960580309	360.437765721463	1214.156125424271	538.303687175560	352.043479247490	1186.282512288302	462.825136287271	340.290673934149	1100.462304747076	348.183796332034	283.219415740781	1166.609752438037	234.039804758515	337.600109213919	1022.561814852714	399.673889675199	578.103441152263	949.230281670704	300.426173533701	644.513968263808	977.900677885665	203.578569153163	577.707854014344	831.623275712202	43.408590071830	558.072343857777	1004.615020154594	96.186542342346	582.858877131991	918.782509327634	37.159034400599	627.451284433470	1126.369809275202	42.087150580009	605.492703488042	1054.480016539488	66.604498755713	366.851096951182	1130.356031046044	67.193318511502	288.866140030905	1208.930974570637	134.880157704521	315.270598817849	1338.531643303169	91.598119118742	290.155860663299	900.109767573920	1090.865535442469	231.176826939573	895.238983388764	830.430932826919	218.342295640362	1177.938960494964	1103.016808289450	785.693820986548	1402.589452921686	1021.421683082268	689.726775309279	
